<svg width="20" height="17" viewBox="0 0 20 17" fill="none" xmlns="http://www.w3.org/2000/svg">
<path d="M20 1.41104C19.8836 1.94229 19.7673 2.47354 19.6574 3.00812C18.8137 7.0589 17.9734 11.1097 17.133 15.1605C17.0716 15.456 17.0198 15.7548 16.9423 16.047C16.6934 17.0099 16.0082 17.2556 15.2227 16.6646C13.8749 15.6519 12.5303 14.6392 11.1856 13.6265C10.7913 13.331 10.7913 13.331 10.4454 13.6696C9.79253 14.3105 9.13639 14.9546 8.48347 15.5954C8.27014 15.8046 8.02449 15.9275 7.69803 15.9275C7.71743 15.6419 7.73359 15.363 7.75298 15.0841C7.83702 13.8489 7.92106 12.6105 8.01479 11.3753C8.02126 11.279 8.08267 11.1628 8.15378 11.0997C10.8721 8.58292 13.5937 6.07276 16.3152 3.56261C16.3378 3.53937 16.3669 3.51944 16.3863 3.4962C16.4639 3.40655 16.6158 3.31358 16.5156 3.19073C16.4607 3.12101 16.2926 3.11437 16.1859 3.13429C16.0599 3.15753 15.9338 3.23058 15.8207 3.30362C12.443 5.47179 9.06528 7.63995 5.69404 9.81476C5.53566 9.91769 5.40313 9.94093 5.2189 9.88116C3.81933 9.42296 2.41653 8.98468 1.01697 8.52979C0.829498 8.47003 0.645259 8.37706 0.486878 8.26085C0.221834 8.06495 0.189509 7.78272 0.431928 7.55362C0.619398 7.37433 0.845658 7.21163 1.08484 7.11534C2.40037 6.58077 3.72559 6.06612 5.04759 5.54483C9.57274 3.76515 14.0947 1.98878 18.6198 0.212412C18.7491 0.162607 18.8881 0.119443 19.0271 0.106162C19.5248 0.0596776 19.8351 0.2921 19.9612 0.786826C19.9709 0.82335 19.9871 0.859873 20 0.896396C20 1.06905 20 1.24171 20 1.41104Z" fill="white"/>
</svg>
