<svg width="17" height="17" viewBox="0 0 17 17" fill="none" xmlns="http://www.w3.org/2000/svg">
<path d="M8.7594 17C8.4588 17 8.15497 17 7.85437 17C7.61842 16.9734 7.3857 16.9502 7.14974 16.917C5.9732 16.7477 4.87747 16.3426 3.87547 15.6852C3.77204 15.6187 3.68477 15.6021 3.56194 15.642C2.61812 15.9607 1.67107 16.2695 0.724024 16.5816C0.672308 16.5982 0.620592 16.6148 0.546251 16.6381C0.87594 15.6287 1.19593 14.6492 1.51916 13.673C1.56118 13.5402 1.55795 13.4439 1.47714 13.3244C0.782205 12.3051 0.332922 11.1861 0.12929 9.96426C0.0711095 9.6123 0.0420193 9.25371 0 8.89844C0 8.59961 0 8.30078 0 8.00195C0.00969676 7.95547 0.0226258 7.90566 0.0290903 7.85918C0.122826 6.54102 0.48807 5.30918 1.15715 4.18027C2.46944 1.96895 4.36677 0.610937 6.84914 0.132812C7.15944 0.0730469 7.4762 0.0431641 7.78973 0C8.11295 0 8.43618 0 8.7594 0C8.80142 0.00996094 8.84344 0.0232422 8.88546 0.0265625C10.1816 0.119531 11.3905 0.501367 12.4959 1.19531C14.6389 2.54668 15.9576 4.49238 16.4198 7.03906C16.478 7.35781 16.5071 7.6832 16.5491 8.00195C16.5491 8.33398 16.5491 8.66602 16.5491 8.99805C16.5362 9.11758 16.5233 9.23711 16.5103 9.35664C16.3132 11.1795 15.6376 12.7898 14.4449 14.1545C13.1682 15.6154 11.5876 16.5252 9.70322 16.8672C9.38969 16.9236 9.07293 16.9568 8.7594 17ZM10.9929 13.2812C11.2191 13.2381 11.4551 13.2182 11.6684 13.1418C12.8353 12.7234 13.2296 12.149 13.2587 11.0334C13.2619 10.8641 13.2005 10.7512 13.0486 10.6781C12.4312 10.376 11.8203 10.0672 11.1998 9.77168C10.883 9.61895 10.6955 9.68203 10.4887 9.96758C10.327 10.19 10.1719 10.4125 10.0038 10.6316C9.7517 10.9637 9.57393 11.0068 9.19252 10.8475C7.80912 10.2664 6.78773 9.26367 6.02169 7.96543C5.91825 7.78945 5.93441 7.63008 6.06047 7.47734C6.20916 7.30137 6.35461 7.12539 6.50976 6.95605C6.76834 6.67715 6.82652 6.3916 6.65521 6.02637C6.374 5.41875 6.14128 4.78789 5.87623 4.17031C5.83745 4.07734 5.74371 3.96777 5.65967 3.94785C5.22009 3.8416 4.77404 3.83496 4.39586 4.13379C4.04355 4.40938 3.7979 4.78125 3.64598 5.21289C3.34861 6.04297 3.44558 6.8498 3.7785 7.64668C4.02415 8.2377 4.38293 8.75234 4.75141 9.26367C5.37847 10.1336 6.09603 10.9172 6.93318 11.5846C7.78003 12.2586 8.74324 12.6836 9.7517 13.0156C10.1557 13.1451 10.563 13.2547 10.9929 13.2812Z" fill="white"/>
</svg>
