<svg width="16" height="17" viewBox="0 0 16 17" fill="none" xmlns="http://www.w3.org/2000/svg">
<path d="M6.0816 0.0332031C7.42298 0.0332031 8.7676 0.0332031 10.109 0.0332031C10.2738 0.0597656 10.4387 0.0863281 10.6035 0.10957C12.9889 0.438281 15.0446 2.49023 15.426 4.93066C15.4745 5.24941 15.5133 5.5748 15.5101 5.89688C15.5068 7.0125 15.5618 8.13809 15.4551 9.24375C15.1836 12.0992 12.7368 14.377 9.94737 14.4367C8.98093 14.4566 8.01448 14.4467 7.04804 14.44C6.90259 14.44 6.79916 14.4799 6.69572 14.5895C5.91675 15.3963 5.13132 16.1965 4.34588 17C4.278 17 4.21012 17 4.14548 17C4.00326 16.9004 3.9677 16.7643 3.9677 16.5916C3.97417 15.7648 3.96771 14.9381 3.97417 14.108C3.97417 13.9453 3.93538 13.8557 3.7867 13.7727C2.24815 12.926 1.25584 11.6311 0.835652 9.88789C0.748381 9.52266 0.686967 9.14082 0.683735 8.76562C0.677271 7.58691 0.632019 6.40156 0.732219 5.23281C0.929386 2.94512 2.66834 0.889844 4.82102 0.282227C5.23475 0.172656 5.6614 0.116211 6.0816 0.0332031ZM10.1478 12.3316C10.4742 12.3383 10.7813 12.2752 11.0269 12.0428C11.3275 11.7572 11.6249 11.4684 11.9061 11.1629C12.2293 10.8143 12.2132 10.3195 11.8867 9.97422C11.5053 9.56582 11.1239 9.16074 10.7393 8.75566C10.2706 8.26426 9.62415 8.38047 9.34941 9.00801C9.15224 9.45625 8.70619 9.67871 8.26983 9.48945C7.28723 9.06113 6.57613 8.33731 6.19796 7.30469C6.01049 6.79004 6.21089 6.40156 6.70542 6.19902C7.25814 5.97324 7.42298 5.3125 7.02541 4.86426C6.63108 4.42266 6.22705 3.99102 5.81009 3.56934C5.44161 3.20078 4.94061 3.2207 4.57214 3.5959C4.3685 3.80508 4.17457 4.02754 3.95801 4.22344C3.5863 4.55879 3.46347 4.97715 3.49579 5.46523C3.54428 6.16914 3.79639 6.80664 4.13255 7.40762C5.11515 9.17402 6.46624 10.5785 8.1567 11.6311C8.76437 12.0096 9.41405 12.3018 10.1478 12.3316ZM8.87426 2.37734C8.83224 2.38066 8.73851 2.38398 8.64477 2.39062C8.42175 2.40391 8.30215 2.50684 8.30215 2.68281C8.30215 2.84551 8.42498 2.93516 8.64801 2.94512C8.89042 2.95508 9.13284 2.95176 9.3688 2.99492C11.2661 3.34687 12.4427 5.1332 12.0645 7.07891C12.0225 7.28809 12.0968 7.42754 12.2649 7.46074C12.4265 7.49395 12.559 7.38438 12.6043 7.18848C13.1376 4.76797 11.3502 2.43379 8.87426 2.37734ZM8.87749 3.50625C8.79022 3.50625 8.70295 3.49961 8.61568 3.50625C8.39266 3.52285 8.26337 3.65566 8.28599 3.83496C8.30539 4.01094 8.44114 4.09727 8.66094 4.07734C9.73404 3.98105 10.7166 4.70488 10.9558 5.78398C11.0076 6.01973 10.9946 6.27207 10.9979 6.51777C11.0011 6.71367 11.0916 6.85977 11.2532 6.87969C11.4116 6.89961 11.5376 6.77344 11.5635 6.5709C11.5732 6.49453 11.5764 6.42148 11.5797 6.34512C11.5958 4.79785 10.3902 3.52617 8.87749 3.50625ZM10.4807 6.23555C10.4484 5.39551 9.7502 4.67832 8.95184 4.66504C8.73851 4.66172 8.60922 4.74805 8.59629 4.91406C8.58013 5.0834 8.69972 5.18965 8.92598 5.21289C9.49485 5.26934 9.90535 5.69434 9.9506 6.27539C9.96676 6.49121 10.0734 6.61738 10.2286 6.61074C10.3967 6.60078 10.4872 6.46797 10.4807 6.23555Z" fill="white"/>
</svg>
