<svg width="69" height="52" viewBox="0 0 69 52" fill="none" xmlns="http://www.w3.org/2000/svg">
<path d="M10.81 48.7825L10.2811 49.6312L10.2866 49.6346L10.81 48.7825ZM3.18 40.1025L2.28337 40.5453L2.28337 40.5453L3.18 40.1025ZM3.18 12.5225L2.28337 12.0797L2.28337 12.0797L3.18 12.5225ZM10.81 3.8425L10.2866 2.99041L10.2811 2.99381L10.81 3.8425ZM33.07 3.8425L32.5411 4.69121L32.5466 4.69458L33.07 3.8425ZM40.77 12.5225L39.8734 12.9653L39.8734 12.9653L40.77 12.5225ZM40.77 40.1025L39.8734 39.6597L39.8734 39.6597L40.77 40.1025ZM33.07 48.7825L32.5466 47.9304L32.5411 47.9338L33.07 48.7825ZM25.93 39.0525L25.3053 38.2716L25.2898 38.2843L25.93 39.0525ZM28.66 34.5725L29.6129 34.8757L29.6149 34.8696L28.66 34.5725ZM28.66 18.0525L27.7071 18.3557L28.66 18.0525ZM25.93 13.5725L25.2898 14.3407L25.3053 14.3534L25.93 13.5725ZM18.02 13.5725L17.3953 12.7916L17.3798 12.8043L18.02 13.5725ZM15.29 18.0525L14.3435 17.7298L14.3371 17.7493L15.29 18.0525ZM15.29 34.5725L14.3351 34.8696L14.3435 34.8952L15.29 34.5725ZM18.02 39.0525L17.3798 39.8207L17.3953 39.8334L18.02 39.0525ZM22.01 50.7925C17.9765 50.7925 14.4278 49.8312 11.3334 47.9304L10.2866 49.6346C13.7256 51.7471 17.6435 52.7925 22.01 52.7925V50.7925ZM11.3389 47.9338C8.29403 46.0363 5.87033 43.292 4.07663 39.6597L2.28337 40.5453C4.22301 44.473 6.88597 47.5154 10.2811 49.6312L11.3389 47.9338ZM4.07663 39.6597C2.29446 36.0508 1.38 31.6145 1.38 26.3125H-0.62C-0.62 31.8372 0.332204 36.5942 2.28337 40.5453L4.07663 39.6597ZM1.38 26.3125C1.38 21.0105 2.29446 16.5742 4.07663 12.9653L2.28337 12.0797C0.332204 16.0308 -0.62 20.7878 -0.62 26.3125H1.38ZM4.07663 12.9653C5.87033 9.33305 8.29403 6.58871 11.3389 4.69119L10.2811 2.99381C6.88597 5.10962 4.22301 8.15195 2.28337 12.0797L4.07663 12.9653ZM11.3334 4.69458C14.4278 2.79376 17.9765 1.8325 22.01 1.8325V-0.167503C17.6435 -0.167503 13.7256 0.877904 10.2866 2.99042L11.3334 4.69458ZM22.01 1.8325C25.9947 1.8325 29.4947 2.79268 32.5411 4.69119L33.5989 2.99381C30.2053 0.878982 26.332 -0.167503 22.01 -0.167503V1.8325ZM32.5466 4.69458C35.637 6.59297 38.0815 9.33671 39.8734 12.9653L41.6666 12.0797C39.7252 8.14829 37.0363 5.10536 33.5934 2.99042L32.5466 4.69458ZM39.8734 12.9653C41.6555 16.5742 42.57 21.0105 42.57 26.3125H44.57C44.57 20.7878 43.6178 16.0308 41.6666 12.0797L39.8734 12.9653ZM42.57 26.3125C42.57 31.6145 41.6555 36.0508 39.8734 39.6597L41.6666 40.5453C43.6178 36.5942 44.57 31.8372 44.57 26.3125H42.57ZM39.8734 39.6597C38.0815 43.2883 35.637 46.032 32.5466 47.9304L33.5934 49.6346C37.0363 47.5196 39.7252 44.4767 41.6666 40.5453L39.8734 39.6597ZM32.5411 47.9338C29.4947 49.8323 25.9947 50.7925 22.01 50.7925V52.7925C26.332 52.7925 30.2053 51.746 33.5989 49.6312L32.5411 47.9338ZM22.01 41.4525C23.7311 41.4525 25.2658 40.9077 26.5702 39.8207L25.2898 38.2843C24.3542 39.0639 23.2756 39.4525 22.01 39.4525V41.4525ZM26.5547 39.8334C27.9297 38.7334 28.9249 37.0379 29.6129 34.8757L27.7071 34.2693C27.0884 36.2137 26.2636 37.505 25.3053 38.2716L26.5547 39.8334ZM29.6149 34.8696C30.3098 32.6358 30.64 29.771 30.64 26.3125H28.64C28.64 29.6673 28.3169 32.3092 27.7051 34.2754L29.6149 34.8696ZM30.64 26.3125C30.64 22.8104 30.3105 19.9415 29.6129 17.7493L27.7071 18.3557C28.3162 20.2701 28.64 22.908 28.64 26.3125H30.64ZM29.6129 17.7493C28.9249 15.5871 27.9297 13.8916 26.5547 12.7916L25.3053 14.3534C26.2636 15.12 27.0884 16.4113 27.7071 18.3557L29.6129 17.7493ZM26.5702 12.8043C25.2658 11.7173 23.7311 11.1725 22.01 11.1725V13.1725C23.2756 13.1725 24.3542 13.5611 25.2898 14.3407L26.5702 12.8043ZM22.01 11.1725C20.2895 11.1725 18.7392 11.7165 17.3953 12.7916L18.6447 14.3534C19.6341 13.5618 20.7439 13.1725 22.01 13.1725V11.1725ZM17.3798 12.8043C16.066 13.8992 15.0758 15.5818 14.3435 17.7298L16.2365 18.3752C16.9042 16.4165 17.734 15.1125 18.6602 14.3407L17.3798 12.8043ZM14.3371 17.7493C13.6395 19.9415 13.31 22.8104 13.31 26.3125H15.31C15.31 22.908 15.6338 20.2701 16.2429 18.3557L14.3371 17.7493ZM13.31 26.3125C13.31 29.771 13.6402 32.6358 14.3351 34.8696L16.2449 34.2754C15.6331 32.3092 15.31 29.6673 15.31 26.3125H13.31ZM14.3435 34.8952C15.0758 37.0432 16.066 38.7258 17.3798 39.8207L18.6602 38.2843C17.734 37.5125 16.9042 36.2085 16.2365 34.2498L14.3435 34.8952ZM17.3953 39.8334C18.7392 40.9085 20.2895 41.4525 22.01 41.4525V39.4525C20.7439 39.4525 19.6341 39.0632 18.6447 38.2716L17.3953 39.8334ZM54.9614 50.8125H53.9614L54.9614 51.8125V50.8125ZM54.9614 6.7825L55.6557 6.06281L53.9614 6.7825H54.9614ZM60.9114 12.5225V13.5225L61.6057 11.8028L60.9114 12.5225ZM45.8614 12.5225H44.8614L45.8614 13.5225V12.5225ZM45.8614 1.8125V0.812497L44.8614 1.8125H45.8614ZM68.8214 1.8125H69.8214L68.8214 0.812497V1.8125ZM68.8214 50.8125V51.8125L69.8214 50.8125H68.8214ZM55.9614 50.8125V6.7825H53.9614V50.8125H55.9614ZM54.2671 7.50219L60.2171 13.2422L61.6057 11.8028L55.6557 6.06281L54.2671 7.50219ZM60.9114 11.5225H45.8614V13.5225H60.9114V11.5225ZM46.8614 12.5225V1.8125H44.8614V12.5225H46.8614ZM45.8614 2.8125H68.8214V0.812497H45.8614V2.8125ZM67.8214 1.8125V50.8125H69.8214V1.8125H67.8214ZM68.8214 49.8125H54.9614V51.8125H68.8214V49.8125Z" fill="white"/>
</svg>
