<svg width="298" height="48" viewBox="0 0 298 48" fill="none" xmlns="http://www.w3.org/2000/svg">
<g clip-path="url(#clip0_1_1238)">
<path fill-rule="evenodd" clip-rule="evenodd" d="M268.749 25.7281L291.169 17.1841L282.797 25.6321L272.79 29.6641L268.749 25.7281ZM280.392 39.7441L281.739 41.0881L277.794 45.0241L276.447 43.6801L280.392 39.7441ZM275.003 43.6801L270.673 48.0001L266.439 43.7761L270.769 39.4561L275.003 43.6801Z" fill="white"/>
<path fill-rule="evenodd" clip-rule="evenodd" d="M276.832 12.2881C278.083 11.0401 278.66 9.98415 278.756 9.21615C278.756 8.35215 278.468 7.58415 277.794 6.91215C277.12 6.24015 276.351 5.85615 275.581 5.85615C274.811 5.85615 273.849 6.33615 272.887 7.39215L269.904 10.3681L265.574 6.24015L268.268 3.55215C270.481 1.34415 272.79 0.192148 275.1 0.000147588C277.409 -0.0958524 279.622 0.960148 281.739 3.07215C283.856 5.18415 284.914 7.39215 284.818 9.69615C284.722 12.0001 283.567 14.3041 281.258 16.5121C279.815 17.9521 278.275 19.1041 276.639 19.7761C275.004 20.5441 273.464 21.0241 271.828 21.4081C270.192 21.6961 268.653 21.8881 267.017 21.9841C265.478 22.0801 263.938 22.0801 262.591 22.1761C261.244 22.2721 259.897 22.4641 258.838 22.7521C257.78 23.0401 256.818 23.5201 256.048 24.2881C255.759 24.5761 255.567 24.7681 255.47 24.9601L263.746 33.2161L259.8 37.1521L247.195 24.5761L250.563 21.2161C251.91 19.8721 253.354 18.9121 254.797 18.2401C256.24 17.6641 257.78 17.1841 259.223 16.9921C260.763 16.8001 262.206 16.7041 263.746 16.6081C265.285 16.6081 266.728 16.5121 268.268 16.3201C269.808 16.1281 271.155 15.7441 272.598 15.1681C274.041 14.5921 275.485 13.6321 276.832 12.2881Z" fill="white"/>
<path fill-rule="evenodd" clip-rule="evenodd" d="M293.575 16.2241L275.774 34.1761L267.498 25.9201L263.072 30.3361L275.774 42.9121L298.001 20.6401L293.575 16.2241Z" fill="white"/>
<path d="M17.4162 38.2079H11.6429V15.3599H5.77333V38.2079H0V9.88794H17.4162V38.2079Z" fill="white"/>
<path d="M38.4897 32.7359V38.2079H23.3828V9.88794H38.1048V15.3599H29.1561V21.2159H37.2388V26.4959H29.1561V32.7359H38.4897Z" fill="white"/>
<path d="M61.0051 19.4879C61.0051 25.5359 57.5411 29.0879 51.6716 29.0879H49.1698V38.2079H43.3965V9.88794H51.6716C57.5411 9.88794 61.0051 13.4399 61.0051 19.4879ZM55.1356 19.4879C55.1356 16.7039 53.8847 15.3599 51.5754 15.3599H49.1698V23.6159H51.5754C53.8847 23.6159 55.1356 22.1759 55.1356 19.4879Z" fill="white"/>
<path d="M64.8538 29.568V18.528C64.8538 12.576 68.1253 9.31201 73.7062 9.31201C79.3833 9.31201 82.5586 12.576 82.7511 18.528H76.9777C76.7853 15.936 75.8231 14.88 73.61 14.88C71.878 14.88 70.8195 16.032 70.8195 18.528V29.568C70.8195 31.968 71.7818 33.12 73.61 33.12C75.8231 33.12 76.8815 32.064 76.9777 29.568H82.7511C82.6549 35.52 79.3833 38.688 73.61 38.688C68.1253 38.688 64.8538 35.52 64.8538 29.568Z" fill="white"/>
<path d="M104.594 38.2079H98.8206V15.3599H92.9511V38.2079H87.1777V9.88794H104.594V38.2079Z" fill="white"/>
<path d="M125.665 32.7359V38.2079H110.559V9.88794H125.281V15.3599H116.332V21.2159H124.415V26.4959H116.332V32.7359H125.665Z" fill="white"/>
<path d="M137.887 27.4559L136.251 30.0479V38.2079H130.574V9.88794H136.251V20.7359L137.791 17.5679L141.736 9.88794H148.279L141.062 22.2719L149.53 38.2079H142.987L137.887 27.4559Z" fill="white"/>
<path d="M168.195 15.3599H162.614V38.2079H156.745V15.3599H151.164V9.88794H168.195V15.3599Z" fill="white"/>
<path d="M171.949 9.88799H177.53V16.416C177.53 19.008 177.241 23.904 176.76 27.456L176.857 27.552C177.53 25.728 178.204 23.904 178.973 22.08L184.362 9.79199H190.039V38.112H184.458V32.352C184.458 29.184 184.747 23.904 185.132 20.352L185.035 20.256C184.169 22.56 183.4 24.96 182.437 27.168L177.626 38.112H171.949V9.88799V9.88799Z" fill="white"/>
<path d="M213.422 29.7599C213.422 34.8479 209.958 38.2079 205.05 38.2079H196.102V9.88794H204.954C209.38 9.88794 212.459 13.1519 212.459 17.9519C212.459 20.0639 211.593 22.3679 210.054 23.7119C212.171 24.9599 213.422 27.1679 213.422 29.7599ZM201.875 15.2639V21.2159H204.184C205.82 21.2159 206.686 20.1599 206.686 18.1439C206.686 16.2239 205.916 15.2639 203.992 15.2639H201.875V15.2639ZM207.456 29.6639C207.456 27.5519 206.301 26.5919 204.088 26.5919H201.779V32.8319H203.992C206.301 32.8319 207.456 31.7759 207.456 29.6639Z" fill="white"/>
<path d="M227.566 33.5039H221.6L220.638 38.2079H214.672L221.504 9.88794H227.662L234.494 38.2079H228.528L227.566 33.5039ZM226.507 28.0319L225.834 24.7679C225.449 22.7519 224.968 19.2959 224.679 16.9919H224.487C224.198 19.2959 223.717 22.7519 223.332 24.7679L222.658 28.0319H226.507V28.0319Z" fill="white"/>
</g>
<defs>
<clipPath id="clip0_1_1238">
<rect width="298" height="48" fill="white"/>
</clipPath>
</defs>
</svg>
