<svg width="18" height="20" viewBox="0 0 18 20" fill="none" xmlns="http://www.w3.org/2000/svg">
<path d="M7.08255 0.0380859C8.62066 0.0380859 10.1625 0.0380859 11.7006 0.0380859C11.8896 0.0685439 12.0786 0.0990019 12.2676 0.125653C15.0029 0.50257 17.3601 2.85545 17.7974 5.65378C17.853 6.01927 17.8975 6.39238 17.8938 6.76169C17.89 8.04092 17.9531 9.33158 17.8307 10.5994C17.5194 13.8736 14.7138 16.4854 11.5153 16.5539C10.4071 16.5768 9.29891 16.5653 8.19073 16.5577C8.02395 16.5577 7.90535 16.6034 7.78675 16.7291C6.89354 17.6542 5.99291 18.5718 5.09229 19.4931C5.01446 19.4931 4.93662 19.4931 4.8625 19.4931C4.69942 19.3789 4.65865 19.2228 4.65865 19.0248C4.66607 18.0768 4.65865 17.1288 4.66607 16.177C4.66607 15.9905 4.62159 15.8877 4.4511 15.7925C2.68691 14.8216 1.54909 13.3368 1.06727 11.338C0.967205 10.9192 0.896785 10.4814 0.893079 10.0511C0.885666 8.69957 0.833778 7.34039 0.948673 6.00024C1.17476 3.37704 3.16873 1.02036 5.63711 0.32363C6.11151 0.19799 6.60074 0.133267 7.08255 0.0380859ZM11.745 14.1401C12.1194 14.1477 12.4715 14.0754 12.7532 13.8089C13.0978 13.4815 13.4388 13.1502 13.7613 12.8C14.1319 12.4002 14.1134 11.8329 13.739 11.437C13.3017 10.9687 12.8643 10.5042 12.4233 10.0397C11.8859 9.47625 11.1446 9.60951 10.8296 10.3291C10.6035 10.8431 10.092 11.0981 9.5917 10.8811C8.465 10.39 7.64962 9.56001 7.21598 8.37596C7.00102 7.78584 7.23081 7.34039 7.79787 7.10814C8.43164 6.84925 8.62066 6.09161 8.16479 5.57763C7.71262 5.07127 7.24934 4.57633 6.77123 4.0928C6.34871 3.6702 5.77424 3.69304 5.35173 4.12326C5.11823 4.36312 4.89586 4.61821 4.64754 4.84283C4.22131 5.22736 4.08047 5.70708 4.11754 6.26674C4.17313 7.07388 4.46222 7.80487 4.84767 8.49398C5.97438 10.5194 7.5236 12.1299 9.46198 13.3368C10.1588 13.7708 10.9037 14.1059 11.745 14.1401ZM10.2848 2.726C10.2366 2.72981 10.1291 2.73362 10.0216 2.74123C9.7659 2.75646 9.62877 2.87449 9.62877 3.07627C9.62877 3.26283 9.7696 3.36562 10.0253 3.37704C10.3033 3.38846 10.5813 3.38466 10.8518 3.43415C13.0274 3.83772 14.3765 5.88602 13.9429 8.11707C13.8947 8.35692 13.9799 8.51683 14.1727 8.5549C14.358 8.59297 14.5099 8.46733 14.5618 8.24271C15.1734 5.46722 13.1238 2.79073 10.2848 2.726ZM10.2885 4.02047C10.1884 4.02047 10.0883 4.01285 9.98827 4.02047C9.73254 4.0395 9.58429 4.19179 9.61023 4.39738C9.63247 4.59917 9.78814 4.69816 10.0402 4.67531C11.2706 4.5649 12.3974 5.39488 12.6716 6.63224C12.7309 6.90255 12.7161 7.1919 12.7198 7.47364C12.7235 7.69827 12.8273 7.86579 13.0126 7.88863C13.1942 7.91147 13.3387 7.7668 13.3684 7.53456C13.3795 7.44699 13.3832 7.36323 13.3869 7.27566C13.4055 5.50149 12.023 4.04331 10.2885 4.02047ZM12.1268 7.15002C12.0897 6.18679 11.2892 5.36443 10.3737 5.3492C10.1291 5.34539 9.98086 5.44438 9.96604 5.63474C9.94751 5.82891 10.0846 5.95074 10.3441 5.97739C10.9964 6.04212 11.4671 6.52944 11.519 7.19571C11.5375 7.44318 11.6598 7.58786 11.8377 7.58024C12.0304 7.56882 12.1342 7.41653 12.1268 7.15002Z" fill="white"/>
</svg>
