<svg width="19" height="20" viewBox="0 0 19 20" fill="none" xmlns="http://www.w3.org/2000/svg">
<path d="M10.044 19.4931C9.69932 19.4931 9.35093 19.4931 9.00624 19.4931C8.73568 19.4627 8.46883 19.436 8.19827 19.3979C6.84919 19.2038 5.59277 18.7393 4.44382 17.9854C4.32522 17.9093 4.22515 17.8903 4.08431 17.9359C3.00208 18.3014 1.91614 18.6555 0.830205 19.0134C0.770905 19.0324 0.711604 19.0515 0.62636 19.0781C1.0044 17.9207 1.37132 16.7976 1.74195 15.6782C1.79013 15.526 1.78642 15.4155 1.69377 15.2785C0.896918 14.1097 0.381746 12.8266 0.148251 11.4256C0.081538 11.022 0.0481815 10.6108 0 10.2034C0 9.86077 0 9.51812 0 9.17547C0.0111188 9.12217 0.0259439 9.06506 0.0333565 9.01175C0.140838 7.50028 0.559647 6.08779 1.32685 4.79332C2.83159 2.2577 5.00717 0.700534 7.85359 0.15229C8.20939 0.0837595 8.57261 0.0494942 8.93212 0C9.30274 0 9.67337 0 10.044 0C10.0922 0.0114217 10.1404 0.0266507 10.1885 0.030458C11.6748 0.137061 13.0609 0.574894 14.3285 1.37061C16.7857 2.92016 18.2979 5.15121 18.8279 8.07137C18.8946 8.43686 18.9279 8.80997 18.9761 9.17547C18.9761 9.55619 18.9761 9.93692 18.9761 10.3176C18.9613 10.4547 18.9465 10.5918 18.9316 10.7288C18.7056 12.819 17.9309 14.6655 16.5633 16.2303C15.0994 17.9055 13.287 18.9487 11.1262 19.3408C10.7667 19.4055 10.4035 19.4436 10.044 19.4931ZM12.605 15.229C12.8645 15.1795 13.135 15.1567 13.3796 15.0691C14.7176 14.5894 15.1698 13.9307 15.2031 12.6515C15.2068 12.4573 15.1364 12.3279 14.9622 12.2441C14.2543 11.8976 13.5538 11.5436 12.8422 11.2047C12.479 11.0296 12.2641 11.1019 12.0269 11.4294C11.8415 11.6844 11.6636 11.9395 11.4709 12.1908C11.1818 12.5715 10.978 12.621 10.5406 12.4383C8.95435 11.772 7.78317 10.6222 6.90479 9.13359C6.78619 8.9318 6.80472 8.74905 6.94926 8.57392C7.11975 8.37214 7.28653 8.17035 7.46443 7.97618C7.76093 7.65638 7.82765 7.32895 7.63122 6.91015C7.30877 6.21343 7.04192 5.49005 6.738 4.7819C6.69353 4.6753 6.58605 4.54966 6.48968 4.52682C5.98563 4.40499 5.47416 4.39737 5.04053 4.74002C4.63655 5.05603 4.35487 5.48244 4.18068 5.97738C3.8397 6.92919 3.95089 7.85435 4.33263 8.76809C4.61431 9.44578 5.02571 10.0359 5.44822 10.6222C6.16724 11.6197 6.99003 12.5182 7.94995 13.2835C8.921 14.0564 10.0255 14.5437 11.1818 14.9244C11.6451 15.0729 12.1121 15.1985 12.605 15.229Z" fill="white"/>
</svg>
