<svg width="24" height="20" viewBox="0 0 24 20" fill="none" xmlns="http://www.w3.org/2000/svg">
<path d="M23.003 1.61816C22.8696 2.22732 22.7362 2.83648 22.6102 3.44944C21.6428 8.09429 20.6792 12.7391 19.7156 17.384C19.6452 17.7228 19.5859 18.0655 19.4969 18.4005C19.2115 19.5046 18.4258 19.7863 17.5252 19.1087C15.9797 17.9474 14.4378 16.7862 12.896 15.625C12.4439 15.2862 12.4439 15.2862 12.0473 15.6745C11.2986 16.4093 10.5463 17.1479 9.7976 17.8827C9.55298 18.1226 9.2713 18.2634 8.89697 18.2634C8.91921 17.936 8.93774 17.6162 8.95997 17.2964C9.05634 15.8801 9.1527 14.46 9.26019 13.0437C9.2676 12.9333 9.33802 12.8 9.41955 12.7277C12.5365 9.84181 15.6572 6.96353 18.7779 4.08525C18.8038 4.0586 18.8372 4.03576 18.8594 4.00911C18.9484 3.90631 19.1226 3.79971 19.0077 3.65884C18.9447 3.57889 18.7519 3.57127 18.6296 3.59412C18.4851 3.62077 18.3406 3.70453 18.2108 3.78829C14.3378 6.27442 10.4647 8.76055 6.59908 11.2543C6.41747 11.3723 6.26552 11.399 6.05426 11.3304C4.44944 10.805 2.84092 10.3025 1.2361 9.7809C1.02114 9.71237 0.809882 9.60576 0.628274 9.47251C0.32436 9.24788 0.287295 8.92426 0.565265 8.66156C0.780229 8.45597 1.03967 8.26942 1.31393 8.15901C2.82239 7.54604 4.34196 6.95592 5.85783 6.35818C11.0466 4.3175 16.2317 2.28062 21.4205 0.24374C21.5687 0.186631 21.7281 0.137137 21.8875 0.121908C22.4582 0.0686066 22.814 0.335114 22.9586 0.902394C22.9697 0.944274 22.9882 0.986153 23.003 1.02803C23.003 1.22601 23.003 1.42399 23.003 1.61816Z" fill="white"/>
</svg>
